<svg width="35" height="35" viewBox="0 0 35 35" fill="none" xmlns="http://www.w3.org/2000/svg">
<path d="M30.625 11.6667C30.3304 11.6667 23.552 11.709 17.5 14.595C11.4479 11.709 4.66954 11.6667 4.37496 11.6667C3.98819 11.6667 3.61725 11.8203 3.34376 12.0938C3.07027 12.3673 2.91663 12.7382 2.91663 13.125V27.5377C2.91663 27.7334 2.95601 27.9271 3.03242 28.1072C3.10884 28.2873 3.22072 28.4503 3.36142 28.5863C3.64579 28.8604 4.06142 29.031 4.42454 28.9946L4.60975 28.9931C5.60579 28.9931 10.8748 29.136 16.8831 31.9463C16.9064 31.9579 16.9327 31.9535 16.956 31.9623C17.1295 32.0338 17.3118 32.0833 17.5 32.0833C17.6881 32.0833 17.8704 32.0338 18.0454 31.9623C18.0687 31.9535 18.095 31.9579 18.1183 31.9463C24.1266 29.1346 29.3956 28.9931 30.3916 28.9931L30.5768 28.9946C30.9239 29.031 31.3541 28.8604 31.64 28.5863C31.9229 28.3106 32.0833 27.9315 32.0833 27.5377V13.125C32.0833 12.7382 31.9297 12.3673 31.6562 12.0938C31.3827 11.8203 31.0117 11.6667 30.625 11.6667ZM5.83329 14.6548C7.99892 14.8167 12.2223 15.3548 16.0416 17.1223V28.4127C11.6666 26.6992 7.88954 26.234 5.83329 26.1144V14.6548ZM29.1666 26.1144C27.1104 26.234 23.3333 26.6992 18.9583 28.4127V17.1223C22.7777 15.3548 27.001 14.8167 29.1666 14.6548V26.1144Z" fill="#4F4F4F"/>
<path d="M17.5 11.6667C19.9162 11.6667 21.875 9.70792 21.875 7.29167C21.875 4.87543 19.9162 2.91667 17.5 2.91667C15.0838 2.91667 13.125 4.87543 13.125 7.29167C13.125 9.70792 15.0838 11.6667 17.5 11.6667Z" fill="#4F4F4F"/>
</svg>
