<svg width="100" height="100" viewBox="0 0 100 100" fill="none" xmlns="http://www.w3.org/2000/svg">
<g clip-path="url(#clip0_12_2)">
<path d="M50 12C29 12 12 29 12 50C12 71 29 88 50 88C71 88 88 71 88 50C88 29 71 12 50 12ZM50 84C31.2 84 16 68.8 16 50C16 31.2 31.2 16 50 16C68.8 16 84 31.2 84 50C84 68.8 68.8 84 50 84ZM52.8 50L65.4 37.4C66.2 36.6 66.2 35.4 65.4 34.6C64.6 33.8 63.4 33.8 62.6 34.6L50 47.2L37.4 34.6C36.6 33.8 35.4 33.8 34.6 34.6C33.8 35.4 33.8 36.6 34.6 37.4L47.2 50L34.6 62.6C33.8 63.4 33.8 64.6 34.6 65.4C35.4 66.2 36.6 66.2 37.4 65.4L50 52.8L62.6 65.4C63.4 66.2 64.6 66.2 65.4 65.4C66.2 64.6 66.2 63.4 65.4 62.6L52.8 50Z" fill="#64CCF3"/>
<path d="M244 -1070V614H-1540V-1070H244ZM252 -1078H-1548V622H252V-1078Z" fill="#64CCF3"/>
</g>
<defs>
<clipPath id="clip0_12_2">
<rect width="100" height="100" fill="white"/>
</clipPath>
</defs>
</svg>
