<svg width="35" height="35" viewBox="0 0 35 35" fill="none" xmlns="http://www.w3.org/2000/svg">
<path d="M14.5833 4.375H5.83333C5.44656 4.375 5.07563 4.52865 4.80214 4.80214C4.52865 5.07563 4.375 5.44656 4.375 5.83333V14.5833C4.375 14.9701 4.52865 15.341 4.80214 15.6145C5.07563 15.888 5.44656 16.0417 5.83333 16.0417H14.5833C14.9701 16.0417 15.341 15.888 15.6145 15.6145C15.888 15.341 16.0417 14.9701 16.0417 14.5833V5.83333C16.0417 5.44656 15.888 5.07563 15.6145 4.80214C15.341 4.52865 14.9701 4.375 14.5833 4.375ZM13.125 13.125H7.29167V7.29167H13.125V13.125ZM29.1667 18.9583H20.4167C20.0299 18.9583 19.659 19.112 19.3855 19.3855C19.112 19.659 18.9583 20.0299 18.9583 20.4167V29.1667C18.9583 29.5534 19.112 29.9244 19.3855 30.1979C19.659 30.4714 20.0299 30.625 20.4167 30.625H29.1667C29.5534 30.625 29.9244 30.4714 30.1979 30.1979C30.4714 29.9244 30.625 29.5534 30.625 29.1667V20.4167C30.625 20.0299 30.4714 19.659 30.1979 19.3855C29.9244 19.112 29.5534 18.9583 29.1667 18.9583ZM27.7083 27.7083H21.875V21.875H27.7083V27.7083ZM24.7917 4.375C21.5746 4.375 18.9583 6.99125 18.9583 10.2083C18.9583 13.4254 21.5746 16.0417 24.7917 16.0417C28.0088 16.0417 30.625 13.4254 30.625 10.2083C30.625 6.99125 28.0088 4.375 24.7917 4.375ZM24.7917 13.125C23.1831 13.125 21.875 11.8169 21.875 10.2083C21.875 8.59979 23.1831 7.29167 24.7917 7.29167C26.4002 7.29167 27.7083 8.59979 27.7083 10.2083C27.7083 11.8169 26.4002 13.125 24.7917 13.125ZM10.2083 18.9583C6.99125 18.9583 4.375 21.5746 4.375 24.7917C4.375 28.0088 6.99125 30.625 10.2083 30.625C13.4254 30.625 16.0417 28.0088 16.0417 24.7917C16.0417 21.5746 13.4254 18.9583 10.2083 18.9583ZM10.2083 27.7083C8.59979 27.7083 7.29167 26.4002 7.29167 24.7917C7.29167 23.1831 8.59979 21.875 10.2083 21.875C11.8169 21.875 13.125 23.1831 13.125 24.7917C13.125 26.4002 11.8169 27.7083 10.2083 27.7083Z" fill="#4F4F4F"/>
</svg>
