<svg width="44" height="44" viewBox="0 0 44 44" fill="none" xmlns="http://www.w3.org/2000/svg">
<path d="M38.4029 15.2258C38.3844 13.8372 38.1244 12.4625 37.6347 11.1631C37.21 10.067 36.5613 9.07162 35.7302 8.24044C34.899 7.40927 33.9036 6.76061 32.8075 6.33592C31.5248 5.85441 30.1697 5.59405 28.7998 5.56592C27.0362 5.48709 26.477 5.46509 22 5.46509C17.523 5.46509 16.9492 5.46509 15.1983 5.56592C13.8291 5.59425 12.4746 5.85461 11.1925 6.33592C10.0963 6.76032 9.10071 7.40887 8.2695 8.24008C7.43828 9.07129 6.78973 10.0669 6.36533 11.1631C5.88286 12.4448 5.62306 13.7996 5.59717 15.1689C5.51833 16.9344 5.4945 17.4936 5.4945 21.9706C5.4945 26.4476 5.4945 27.0196 5.59717 28.7723C5.62467 30.1436 5.88317 31.4966 6.36533 32.7818C6.79044 33.8777 7.43948 34.8728 8.27097 35.7037C9.10246 36.5345 10.0981 37.1828 11.1943 37.6071C12.473 38.108 13.8277 38.387 15.2002 38.4321C16.9657 38.5109 17.5248 38.5348 22.0018 38.5348C26.4788 38.5348 27.0527 38.5348 28.8035 38.4321C30.1733 38.4051 31.5285 38.1454 32.8112 37.6639C33.907 37.2387 34.9021 36.5899 35.7332 35.7588C36.5643 34.9277 37.2132 33.9325 37.6384 32.8368C38.1205 31.5534 38.379 30.2004 38.4065 28.8273C38.4854 27.0636 38.5092 26.5044 38.5092 22.0256C38.5055 17.5486 38.5055 16.9803 38.4029 15.2258ZM21.989 30.4369C17.3067 30.4369 13.5135 26.6438 13.5135 21.9614C13.5135 17.2791 17.3067 13.4859 21.989 13.4859C24.2369 13.4859 26.3926 14.3789 27.9821 15.9683C29.5716 17.5578 30.4645 19.7136 30.4645 21.9614C30.4645 24.2093 29.5716 26.365 27.9821 27.9545C26.3926 29.544 24.2369 30.4369 21.989 30.4369ZM30.8018 15.1488C30.5422 15.149 30.2851 15.098 30.0453 14.9988C29.8054 14.8996 29.5874 14.754 29.4038 14.5704C29.2203 14.3869 29.0747 14.1689 28.9755 13.929C28.8762 13.6891 28.8253 13.432 28.8255 13.1724C28.8255 12.913 28.8766 12.6561 28.9759 12.4165C29.0752 12.1768 29.2207 11.959 29.4041 11.7756C29.5875 11.5922 29.8053 11.4466 30.045 11.3474C30.2846 11.2481 30.5415 11.197 30.8009 11.197C31.0603 11.197 31.3172 11.2481 31.5569 11.3474C31.7966 11.4466 32.0143 11.5922 32.1978 11.7756C32.3812 11.959 32.5267 12.1768 32.626 12.4165C32.7253 12.6561 32.7764 12.913 32.7764 13.1724C32.7764 14.2651 31.8927 15.1488 30.8018 15.1488Z" fill="#64CCF3"/>
<path d="M21.989 27.4671C25.0296 27.4671 27.4945 25.0022 27.4945 21.9616C27.4945 18.921 25.0296 16.4561 21.989 16.4561C18.9484 16.4561 16.4835 18.921 16.4835 21.9616C16.4835 25.0022 18.9484 27.4671 21.989 27.4671Z" fill="#64CCF3"/>
</svg>
