<svg width="67" height="67" viewBox="0 0 67 67" fill="none" xmlns="http://www.w3.org/2000/svg">
<path d="M35.4737 50.25C30.5186 50.249 25.7062 48.5902 21.8029 45.5377L9.53073 57.8098L5.58331 53.8624L17.8555 41.5903C14.8014 37.6866 13.1415 32.8731 13.1404 27.9167C13.1404 15.6026 23.1597 5.58334 35.4737 5.58334C47.7878 5.58334 57.8071 15.6026 57.8071 27.9167C57.8071 40.2307 47.7878 50.25 35.4737 50.25ZM35.4737 11.1667C26.2361 11.1667 18.7237 18.679 18.7237 27.9167C18.7237 37.1543 26.2361 44.6667 35.4737 44.6667C44.7113 44.6667 52.2237 37.1543 52.2237 27.9167C52.2237 18.679 44.7113 11.1667 35.4737 11.1667Z" fill="#64CCF3"/>
</svg>
