<svg width="44" height="44" viewBox="0 0 44 44" fill="none" xmlns="http://www.w3.org/2000/svg">
<path d="M35.9938 14.6612C36.0177 14.982 36.0177 15.301 36.0177 15.62C36.0177 25.3825 28.5872 36.6318 15.0077 36.6318C10.824 36.6318 6.93733 35.42 3.66667 33.3153C4.26067 33.3832 4.83267 33.407 5.4505 33.407C8.77432 33.415 12.004 32.3036 14.619 30.2518C13.0779 30.2239 11.5841 29.7155 10.3459 28.7975C9.10782 27.8795 8.18727 26.5978 7.71283 25.1313C8.16933 25.1992 8.62767 25.245 9.108 25.245C9.76983 25.245 10.4353 25.1533 11.0532 24.9938C9.38073 24.6562 7.87687 23.7496 6.7973 22.4284C5.71773 21.1072 5.1291 19.4529 5.1315 17.7467V17.655C6.116 18.2032 7.25817 18.546 8.46817 18.5918C7.4545 17.9182 6.62332 17.0042 6.04879 15.9313C5.47426 14.8584 5.17424 13.6599 5.1755 12.4428C5.1755 11.0715 5.54033 9.81383 6.18017 8.7175C8.03575 11 10.3501 12.8674 12.9733 14.1985C15.5965 15.5297 18.47 16.2951 21.4078 16.445C21.2942 15.895 21.2245 15.3248 21.2245 14.7528C21.224 13.7829 21.4147 12.8224 21.7856 11.9263C22.1566 11.0301 22.7005 10.2158 23.3863 9.53001C24.0722 8.84418 24.8864 8.30025 25.7826 7.92931C26.6788 7.55836 27.6393 7.36768 28.6092 7.36816C30.7358 7.36816 32.6553 8.25916 34.0047 9.70017C35.6579 9.38046 37.2433 8.77694 38.6907 7.91633C38.1396 9.62283 36.9852 11.0699 35.4438 11.9863C36.9101 11.8191 38.3431 11.4335 39.6953 10.8423C38.6854 12.3147 37.434 13.6058 35.9938 14.6612Z" fill="#64CCF3"/>
</svg>
