<?xml version="1.0" standalone="no"?><svg xmlns="http://www.w3.org/2000/svg" viewBox="0 0 1440 320"><path fill="#64ccf3" fill-opacity="1" d="M0,288L21.8,272C43.6,256,87,224,131,181.3C174.5,139,218,85,262,96C305.5,107,349,181,393,224C436.4,267,480,277,524,245.3C567.3,213,611,139,655,128C698.2,117,742,171,785,202.7C829.1,235,873,245,916,261.3C960,277,1004,299,1047,304C1090.9,309,1135,299,1178,250.7C1221.8,203,1265,117,1309,96C1352.7,75,1396,117,1418,138.7L1440,160L1440,0L1418.2,0C1396.4,0,1353,0,1309,0C1265.5,0,1222,0,1178,0C1134.5,0,1091,0,1047,0C1003.6,0,960,0,916,0C872.7,0,829,0,785,0C741.8,0,698,0,655,0C610.9,0,567,0,524,0C480,0,436,0,393,0C349.1,0,305,0,262,0C218.2,0,175,0,131,0C87.3,0,44,0,22,0L0,0Z"></path></svg>