<svg width="44" height="44" viewBox="0 0 44 44" fill="none" xmlns="http://www.w3.org/2000/svg">
<path d="M39.5872 13.2056C39.3783 12.4308 38.9702 11.7243 38.4035 11.1562C37.8368 10.5882 37.1311 10.1785 36.3568 9.96793C33.4858 9.17959 22 9.16676 22 9.16676C22 9.16676 10.516 9.15393 7.64317 9.90743C6.86936 10.1277 6.16517 10.5432 5.5982 11.114C5.03124 11.6848 4.62052 12.3918 4.4055 13.1671C3.64834 16.0381 3.641 21.9928 3.641 21.9928C3.641 21.9928 3.63367 27.9768 4.38533 30.8184C4.807 32.3896 6.0445 33.6308 7.6175 34.0543C10.5178 34.8426 21.9725 34.8554 21.9725 34.8554C21.9725 34.8554 33.4583 34.8683 36.3293 34.1166C37.1039 33.9064 37.8102 33.4976 38.3784 32.9308C38.9465 32.3639 39.3569 31.6585 39.5688 30.8844C40.3278 28.0153 40.3333 22.0624 40.3333 22.0624C40.3333 22.0624 40.37 16.0766 39.5872 13.2056ZM18.326 27.5093L18.3352 16.5093L27.8813 22.0184L18.326 27.5093Z" fill="#64CCF3"/>
</svg>
